<svg xmlns="http://www.w3.org/2000/svg" width="85.2" height="51.3" viewBox="0 0 85.2 51.3"><style type="text/css">.st0{fill:#A7A9AC;}</style><path class="st0" d="M35 22.4s7.1-.5 7.1-8.8-5.8-12.3-13.1-12.3h-24.1v46.2h24.1s14.7.5 14.7-13.6c0-.1.6-11.5-8.7-11.5zm-19.5-12.9h13.5s3.3 0 3.3 4.8-1.9 5.5-4.1 5.5h-12.7v-10.3zm12.8 29.8h-12.8v-12.4h13.5s4.9-.1 4.9 6.3c-.1 5.5-3.7 6-5.6 6.1zM63.2 13c-17.8 0-17.8 17.8-17.8 17.8s-1.2 17.7 17.8 17.7c0 0 15.8.9 15.8-12.3h-8.1s.3 5-7.4 5c0 0-8.1.5-8.1-8h24c-.1-.1 2.5-20.2-16.2-20.2zm-7.9 13.9s1-7.1 8.1-7.1 7 7.1 7 7.1h-15.1zM53.3 4h19.1v5.7h-19.1z"/></svg>