<svg xmlns="http://www.w3.org/2000/svg" width="85.2" height="83.1" viewBox="0 0 85.2 83.1"><style type="text/css">.st0{fill:#A7A9AC;}</style><path class="st0" d="M65.9 4.7h-45.6c-7.9 0-14.4 6.4-14.4 14.4v45.599999999999994c0 7.9 6.4 14.4 14.4 14.4h45.6c7.9 0 14.4-6.4 14.4-14.4v-45.6c0-8-6.5-14.4-14.4-14.4zm4.1 8.6h1.6v12.6h-12.6v-12.6h11zm-37.5 20.9c2.4-3.3 6.2-5.5 10.6-5.5s8.2 2.2 10.6 5.5c1.5 2.2 2.5 4.8 2.5 7.6 0 7.2-5.9 13.1-13.1 13.1-7.2.1-13.1-5.8-13.1-13 0-2.9.9-5.5 2.5-7.7zm40.5 30.5c0 3.9-3.2 7.1-7.1 7.1h-45.6c-3.9 0-7.1-3.2-7.1-7.1v-30.5h11.1c-1 2.4-1.5 4.9-1.5 7.6 0 11.2 9.1 20.3 20.3 20.3 11.2 0 20.3-9.1 20.3-20.3 0-2.7-.5-5.3-1.5-7.6h11.1v30.5z"/></svg>