<?xml version="1.0" encoding="utf-8"?>
<!-- Generator: Adobe Illustrator 19.1.0, SVG Export Plug-In . SVG Version: 6.00 Build 0)  -->
<!DOCTYPE svg PUBLIC "-//W3C//DTD SVG 1.1//EN" "http://www.w3.org/Graphics/SVG/1.1/DTD/svg11.dtd">
<svg version="1.1" id="Layer_1" xmlns="http://www.w3.org/2000/svg" xmlns:xlink="http://www.w3.org/1999/xlink" x="0px" y="0px"
	 width="85.2px" height="83.1px" viewBox="0 0 85.2 83.1" style="enable-background:new 0 0 85.2 83.1;" xml:space="preserve">
<style type="text/css">
	.st0{fill:#A7A9AC;}
</style>
<path class="st0" d="M65.9,4.7H20.3c-7.9,0-14.4,6.4-14.4,14.4v15.2v30.4c0,7.9,6.4,14.4,14.4,14.4h45.6c7.9,0,14.4-6.4,14.4-14.4
	V34.2V19.1C80.3,11.1,73.8,4.7,65.9,4.7z M70,13.3l1.6,0v1.6v11l-12.6,0l0-12.6L70,13.3z M32.5,34.2c2.4-3.3,6.2-5.5,10.6-5.5
	s8.2,2.2,10.6,5.5c1.5,2.2,2.5,4.8,2.5,7.6c0,7.2-5.9,13.1-13.1,13.1C35.9,55,30,49.1,30,41.9C30,39,30.9,36.4,32.5,34.2z M73,64.7
	c0,3.9-3.2,7.1-7.1,7.1H20.3c-3.9,0-7.1-3.2-7.1-7.1V34.2h11.1c-1,2.4-1.5,4.9-1.5,7.6c0,11.2,9.1,20.3,20.3,20.3
	c11.2,0,20.3-9.1,20.3-20.3c0-2.7-0.5-5.3-1.5-7.6H73V64.7z"/>
<g>
</g>
<g>
</g>
<g>
</g>
<g>
</g>
<g>
</g>
<g>
</g>
</svg>
